<svg xmlns="http://www.w3.org/2000/svg" viewBox="0 0 520.35 79.18"><defs><style>.cls-1{fill:#15cc86;}.cls-2{fill:#1e272d;}</style></defs><g id="Layer_2" data-name="Layer 2"><g id="Layer_1-2" data-name="Layer 1"><rect class="cls-1" x="22.35" y="22.31" width="32.33" height="32.33"/><path class="cls-1" d="M31.41,0H67.93A9.06,9.06,0,0,1,77,9.06V45.58a9.06,9.06,0,0,1-9.06,9.06H65.2V11.79H22.35V9.06A9.06,9.06,0,0,1,31.41,0Z"/><path class="cls-1" d="M45.58,76.51H9.06A9.06,9.06,0,0,1,0,67.46V30.94a9.05,9.05,0,0,1,9.06-9.06h2.73V64.73H54.64v2.74A9,9,0,0,1,45.58,76.51Z"/><path class="cls-2" d="M133.43,48.16l1.32,10.28a24.74,24.74,0,0,1-6.71,2.1,46.08,46.08,0,0,1-8.52.78,27.48,27.48,0,0,1-13-2.88,19.86,19.86,0,0,1-8.39-8.27,26.43,26.43,0,0,1-2.92-12.79,25.45,25.45,0,0,1,2.59-11.85,19,19,0,0,1,7.33-7.82,21.69,21.69,0,0,1,11.23-2.8q8.8,0,13.74,5.19t4.94,14.73q0,1.06-.09,2.79c-.05,1.16-.11,2.12-.16,2.88H108.74q.83,5.69,4.12,8.48a12.73,12.73,0,0,0,8.56,2.8,22.62,22.62,0,0,0,6.66-1,16.37,16.37,0,0,0,5.35-2.59M116.56,23.8a6.81,6.81,0,0,0-5.39,2.43,12.47,12.47,0,0,0-2.59,7h15c0-3-.61-5.33-1.81-6.95a6.09,6.09,0,0,0-5.19-2.43"/><path class="cls-2" d="M177.2,60.25H164.85a11.3,11.3,0,0,1-.65-2.55c-.17-1-.31-2.08-.41-3.13a12.82,12.82,0,0,1-5.31,5.07A16.48,16.48,0,0,1,151,61.32a13.3,13.3,0,0,1-9.59-3.58,12.54,12.54,0,0,1-3.74-9.5,12.7,12.7,0,0,1,5.63-10.7q5.64-4.11,16.5-5.18l3.46-.33q-.42-7.58-9.05-7.57a21.35,21.35,0,0,0-6.42,1.07,20.35,20.35,0,0,0-6.34,3.37l-.82-10.28a31.29,31.29,0,0,1,7.49-2.72,36.13,36.13,0,0,1,8.31-1q9.8,0,14.85,4.78t5.06,13.66V52.52a39.76,39.76,0,0,0,.25,4.15,18.62,18.62,0,0,0,.66,3.58M150.62,47a5.31,5.31,0,0,0,1.48,4A5.24,5.24,0,0,0,156,52.44a8.06,8.06,0,0,0,4-1.12,8.43,8.43,0,0,0,3.21-3.25V39.19l-1.65.16c-3.84.44-6.62,1.31-8.35,2.59A6,6,0,0,0,150.62,47"/><path class="cls-2" d="M180.4,58l1.23-9.87a22,22,0,0,0,6.17,3.16,21.26,21.26,0,0,0,6.67,1.12,10.58,10.58,0,0,0,5.59-1.24,3.86,3.86,0,0,0,2-3.45A3.24,3.24,0,0,0,200.35,45a32.49,32.49,0,0,0-6.7-2.76c-4.72-1.53-8-3.39-9.88-5.55A11.56,11.56,0,0,1,181,28.9a12.12,12.12,0,0,1,4.94-10.28q4.93-3.71,12.84-3.71a31.94,31.94,0,0,1,7.61.91,23.75,23.75,0,0,1,6.29,2.38l-2.79,8.89a15.38,15.38,0,0,0-9.8-3.54,9.57,9.57,0,0,0-4.81,1.07,3.15,3.15,0,0,0,0,5.76A33,33,0,0,0,201.88,33a25.87,25.87,0,0,1,7.73,3.74,12.22,12.22,0,0,1,3.83,4.57,12.66,12.66,0,0,1,1.11,5.26,12.71,12.71,0,0,1-5.27,10.87q-5.26,3.85-14.15,3.86a36.41,36.41,0,0,1-8-.9A26.2,26.2,0,0,1,180.4,58"/><path class="cls-2" d="M212.08,77.7l1-10.21a21,21,0,0,0,3.12,1.2,12.17,12.17,0,0,0,3.38.45,9.3,9.3,0,0,0,6.33-2.22q2.55-2.22,4.53-7.49l.33-.82Q226.49,48,222.32,37.29T214.22,16h13.49q2.31,7.24,4.78,14.49t5,14.48q2.46-7.25,4.81-14.48T247,16h13.08q-4,11-8.31,22.1t-8.89,22.58a43,43,0,0,1-5.8,10.91,18.74,18.74,0,0,1-7.16,5.84,22.61,22.61,0,0,1-9.25,1.77,25.86,25.86,0,0,1-4.61-.37,21.56,21.56,0,0,1-3.95-1.11"/><path class="cls-2" d="M276.67,60.25H263.51V16h12.92v5.68a13.29,13.29,0,0,1,5.06-5,14.67,14.67,0,0,1,7.28-1.77A13.21,13.21,0,0,1,296.18,17,13,13,0,0,1,301,22.81,14.66,14.66,0,0,1,306.58,17a15.87,15.87,0,0,1,8-2.06,12.62,12.62,0,0,1,10,4.32q3.78,4.32,3.78,11.89V60.25H315.18V32.36a9.14,9.14,0,0,0-1.4-5.47A4.83,4.83,0,0,0,309.59,25a7.07,7.07,0,0,0-4.28,1.32,8.68,8.68,0,0,0-2.8,3.46V60.25H289.35V32.36a9.06,9.06,0,0,0-1.44-5.47A4.89,4.89,0,0,0,283.75,25a7.07,7.07,0,0,0-4.28,1.32,8.68,8.68,0,0,0-2.8,3.46Z"/><path class="cls-2" d="M370.55,60.25H358.2a11.81,11.81,0,0,1-.66-2.55c-.16-1-.3-2.08-.41-3.13a12.73,12.73,0,0,1-5.3,5.07,16.54,16.54,0,0,1-7.53,1.68,13.28,13.28,0,0,1-9.59-3.58,12.5,12.5,0,0,1-3.74-9.5,12.67,12.67,0,0,1,5.63-10.7q5.64-4.11,16.5-5.18l3.46-.33q-.42-7.58-9.06-7.57a21.24,21.24,0,0,0-6.41,1.07,20.35,20.35,0,0,0-6.34,3.37l-.82-10.28a31.29,31.29,0,0,1,7.49-2.72,36,36,0,0,1,8.31-1q9.78,0,14.85,4.78t5.06,13.66V52.52a37.2,37.2,0,0,0,.25,4.15,18.62,18.62,0,0,0,.66,3.58M344,47a5.31,5.31,0,0,0,1.48,4,5.22,5.22,0,0,0,3.87,1.49,8.06,8.06,0,0,0,4-1.12,8.57,8.57,0,0,0,3.21-3.25V39.19l-1.65.16c-3.84.44-6.62,1.31-8.35,2.59A6,6,0,0,0,344,47"/><path class="cls-2" d="M403,49.23l-.82,10.36a20.12,20.12,0,0,1-4.28,1.28,24.88,24.88,0,0,1-4.61.45q-7.74,0-11.48-3.78C379.26,55,378,51.26,378,46.26V25.36h-7.41V16H378V7.83l13.16-5.92V16h10.95v9.38H391.18v19a8.7,8.7,0,0,0,1.28,5.23,4.87,4.87,0,0,0,4.15,1.68,10.42,10.42,0,0,0,3.34-.57,12.71,12.71,0,0,0,3-1.48"/><path class="cls-2" d="M446,60.25H433.06V54.49a12.93,12.93,0,0,1-5.23,5.06,15.61,15.61,0,0,1-7.45,1.77A13.43,13.43,0,0,1,410,57c-2.67-2.91-4-6.85-4-11.85V16h13.08v27.9a8.34,8.34,0,0,0,1.6,5.47,5.69,5.69,0,0,0,4.65,1.93A7.83,7.83,0,0,0,429.77,50a8.84,8.84,0,0,0,3-3.46V16H446Z"/><path class="cls-2" d="M464.81,60.25H451.64V16h12.92v7.74a15.23,15.23,0,0,1,5.31-6.67,12.49,12.49,0,0,1,6.95-2.14c.5,0,1,0,1.57.08a11.09,11.09,0,0,1,1.48.25l-1.4,13a7.63,7.63,0,0,0-3.87-.82,9.91,9.91,0,0,0-6,1.93,10.76,10.76,0,0,0-3.79,5.06Z"/><path class="cls-2" d="M520.35,60.25H508a11.81,11.81,0,0,1-.66-2.55c-.16-1-.3-2.08-.41-3.13a12.76,12.76,0,0,1-5.31,5.07,16.48,16.48,0,0,1-7.53,1.68,13.27,13.27,0,0,1-9.58-3.58,12.51,12.51,0,0,1-3.75-9.5,12.68,12.68,0,0,1,5.64-10.7q5.64-4.11,16.5-5.18l3.46-.33q-.42-7.58-9.06-7.57a21.24,21.24,0,0,0-6.41,1.07,20.24,20.24,0,0,0-6.34,3.37l-.82-10.28a31.37,31.37,0,0,1,7.48-2.72,36.15,36.15,0,0,1,8.32-1q9.78,0,14.85,4.78t5.06,13.66V52.52a37.2,37.2,0,0,0,.25,4.15,19.56,19.56,0,0,0,.65,3.58M493.78,47a5.31,5.31,0,0,0,1.48,4,5.2,5.2,0,0,0,3.86,1.49,8.06,8.06,0,0,0,4-1.12,8.57,8.57,0,0,0,3.21-3.25V39.19l-1.65.16c-3.84.44-6.62,1.31-8.35,2.59A6,6,0,0,0,493.78,47"/><polygon points="511.77 6.76 510.71 6.76 510.71 3.5 509.58 3.5 509.58 2.7 512.9 2.7 512.9 3.5 511.77 3.5 511.77 6.76"/><polygon points="517.72 6.76 516.77 6.76 516.71 4.36 515.71 6.37 515.13 6.37 514.13 4.36 514.07 6.76 513.14 6.76 513.25 2.7 514.26 2.7 515.45 5.03 516.62 2.7 517.62 2.7 517.72 6.76"/></g></g></svg>